<svg width="360" height="360" xmlns="http://www.w3.org/2000/svg"><g fill="none" fill-rule="evenodd"><path fill="#FFC999" d="M120 300h60v60h-60z"/><path d="M120 360c-33.137 0-60-26.863-60-60h60v60z" fill="#0500F4"/><path fill="#FFC999" d="M60 240h60v60H60z"/><path d="M120 240H60v-60c33.137 0 60 26.863 60 60z" fill="#0500F4"/><path d="M60 240c-33.137 0-60-26.863-60-60h60v60z" fill="#9B99FB"/><path d="M0 180c0-33.137 26.863-60 60-60v60H0z" fill="#FFC999"/><path d="M60 180v-60h60c0 33.137-26.863 60-60 60z" fill="#0500F4"/><path fill="#FF7800" d="M60 60h60v60H60z"/><path d="M60 60c0-33.137 26.863-60 60-60v60H60z" fill="#9B99FB"/><path fill="#0500F4" d="M120 0h60v60h-60z"/><path fill="#9B99FB" d="M300 300h60v60h-60z"/><path d="M300 360c-33.137 0-60-26.863-60-60h60v60z" fill="#0500F4"/><path fill="#FF7800" d="M240 240h60v60h-60z"/><path d="M300 240h-60v-60c33.137 0 60 26.863 60 60z" fill="#0500F4"/><path d="M240 240c-33.137 0-60-26.863-60-60h60v60z" fill="#9B99FB"/><path d="M180 180c0-33.137 26.863-60 60-60v60h-60z" fill="#0500F4"/><path d="M240 180v-60h60c0 33.137-26.863 60-60 60z" fill="#FFC999"/><path fill="#FF7800" d="M240 60h60v60h-60z"/><path d="M240 60c0-33.137 26.863-60 60-60v60h-60z" fill="#0500F4"/><path fill="#FFC999" d="M300 0h60v60h-60z"/></g></svg>