<?xml version="1.0" standalone="no"?>
<!DOCTYPE svg PUBLIC "-//W3C//DTD SVG 20010904//EN"
 "http://www.w3.org/TR/2001/REC-SVG-20010904/DTD/svg10.dtd">
<svg version="1.0" xmlns="http://www.w3.org/2000/svg"
 width="260.000000pt" height="260.000000pt" viewBox="0 0 260.000000 260.000000"
 preserveAspectRatio="xMidYMid meet">
<metadata>
Created by potrace 1.11, written by Peter Selinger 2001-2013
</metadata>
<g transform="translate(0.000000,260.000000) scale(0.100000,-0.100000)"
fill="#000000" stroke="none">
<path d="M0 1300 l0 -1300 1300 0 1300 0 0 1300 0 1300 -1300 0 -1300 0 0
-1300z m1145 819 c0 -17 -6 -24 -20 -24 -23 0 -33 34 -13 46 20 13 33 5 33
-22z m-110 -47 c3 -8 -1 -22 -9 -31 -12 -12 -20 -12 -41 -3 -31 14 -32 40 -2
51 27 10 43 5 52 -17z m447 -48 c11 -23 10 -29 -11 -45 -21 -17 -26 -18 -45
-6 -41 27 -27 77 20 77 17 0 28 -9 36 -26z m128 11 c26 -32 -13 -81 -47 -59
-35 22 -23 74 17 74 10 0 23 -7 30 -15z m-275 -17 c27 -12 35 -54 13 -76 -19
-19 -66 -15 -78 7 -14 28 -13 38 10 61 23 23 22 23 55 8z m-427 -10 c17 -17
15 -58 -4 -65 -36 -13 -68 33 -44 62 15 18 32 19 48 3z m837 -28 c0 -18 -6
-26 -23 -28 -24 -4 -38 18 -28 44 3 9 15 14 28 12 17 -2 23 -10 23 -28z
m-1161 -1 c-3 -5 -10 -7 -15 -3 -5 3 -7 10 -3 15 3 5 10 7 15 3 5 -3 7 -10 3
-15z m646 -29 c24 -24 25 -38 4 -68 -17 -24 -62 -30 -82 -10 -17 17 -15 64 4
82 21 22 50 20 74 -4z m638 -34 c-2 -13 -10 -21 -23 -21 -23 0 -33 34 -14 45
20 13 40 -1 37 -24z m-1049 -6 c25 -13 33 -37 21 -61 -12 -21 -50 -25 -68 -7
-18 18 -15 55 6 67 21 13 20 13 41 1z m302 -37 c35 -21 39 -63 9 -93 -24 -24
-48 -25 -78 -4 -44 30 -22 100 36 113 2 1 17 -7 33 -16z m527 -106 c6 -48 -59
-82 -103 -53 -17 11 -25 26 -25 44 0 35 10 49 40 60 33 13 84 -17 88 -51z
m-158 33 c41 -41 13 -110 -44 -110 -39 0 -68 28 -68 65 0 58 71 86 112 45z
m-710 -20 c24 -24 24 -29 4 -58 -29 -42 -84 -23 -84 30 0 45 46 62 80 28z
m989 -14 c8 -9 11 -26 7 -41 -16 -65 -111 -48 -104 18 5 54 60 67 97 23z
m-709 -13 c37 -48 8 -103 -55 -103 -17 0 -39 6 -48 13 -48 37 -15 117 48 117
25 0 39 -7 55 -27z m830 -43 c15 -28 4 -59 -26 -72 -19 -9 -28 -8 -44 7 -22
20 -26 55 -8 73 20 20 66 15 78 -8z m-1353 -1 c16 -16 5 -39 -17 -39 -23 0
-34 16 -26 35 6 18 28 19 43 4z m223 -59 c24 -24 25 -48 4 -78 -32 -46 -111
-10 -98 46 12 52 58 68 94 32z m1236 -45 c8 -31 -10 -55 -40 -55 -46 0 -61 45
-26 80 25 25 56 13 66 -25z m-1481 -35 c11 -17 -5 -50 -24 -50 -24 0 -43 23
-35 44 7 18 49 22 59 6z m255 -60 c11 -11 20 -29 20 -40 0 -11 -9 -29 -20 -40
-55 -55 -137 13 -89 73 25 32 61 35 89 7z m1305 -10 c4 -12 1 -27 -5 -35 -27
-33 -78 -5 -65 35 4 14 15 20 35 20 20 0 31 -6 35 -20z m-273 -17 c22 -20 23
-70 1 -95 -20 -22 -70 -23 -95 -1 -10 9 -18 29 -18 45 0 57 70 89 112 51z
m-1287 -68 c0 -27 -3 -30 -30 -30 -21 0 -31 5 -33 18 -6 33 6 49 35 45 24 -3
28 -8 28 -33z m289 -26 c33 -26 35 -70 4 -99 -43 -39 -108 -11 -108 48 0 32 8
45 35 60 28 16 39 15 69 -9z m1314 -1 c27 -27 -5 -73 -38 -53 -14 9 -12 52 3
58 19 8 22 8 35 -5z m-224 -20 c21 -30 20 -54 -4 -78 -57 -57 -138 24 -88 88
18 21 75 15 92 -10z m-1350 -54 c19 -18 21 -45 4 -62 -39 -39 -100 17 -63 58
22 24 38 25 59 4z m1404 -60 c26 -18 28 -41 6 -72 -17 -24 -62 -30 -82 -10
-17 17 -15 64 4 82 20 20 43 20 72 0z m197 -25 c0 -28 -23 -32 -39 -6 -8 14
-8 20 4 27 22 14 35 6 35 -21z m-1531 -35 c21 -20 20 -43 -1 -66 -31 -34 -83
-12 -83 36 0 44 52 63 84 30z m1371 -88 c13 -19 14 -29 6 -45 -25 -45 -91 -33
-91 17 0 54 56 72 85 28z m-1275 -17 c17 -30 8 -62 -21 -78 -24 -13 -29 -13
-53 2 -48 32 -25 97 34 97 19 0 33 -7 40 -21z m1040 -44 c18 -19 21 -31 16
-56 -9 -45 -23 -59 -62 -59 -34 0 -64 21 -64 46 0 8 -4 14 -10 14 -17 0 -11
19 17 50 33 37 71 39 103 5z m-930 -25 c11 -11 20 -32 21 -47 0 -17 3 -22 6
-13 9 22 24 30 60 30 26 0 36 -6 48 -30 20 -39 19 -62 -5 -88 -29 -31 -73 -29
-99 4 -12 15 -21 34 -21 42 0 13 -3 13 -12 4 -21 -21 -75 -15 -92 10 -21 30
-20 50 5 82 25 31 61 34 89 6z m1164 -63 c18 -51 -26 -86 -65 -51 -15 13 -18
25 -14 43 13 50 63 54 79 8z m-1486 2 c12 -18 11 -24 -2 -37 -15 -15 -17 -15
-32 0 -13 13 -14 19 -2 37 7 11 15 21 18 21 3 0 11 -10 18 -21z m1226 -61 c21
-30 20 -60 -4 -85 -17 -19 -24 -20 -57 -11 -21 6 -41 15 -45 22 -13 18 -6 85
8 79 7 -2 15 0 19 6 12 20 63 12 79 -11z m-1136 -50 c16 -16 -3 -48 -29 -48
-22 0 -34 22 -25 45 6 18 37 20 54 3z m781 -32 c5 -6 12 -23 16 -38 9 -36 -33
-81 -72 -76 -39 4 -70 50 -57 85 16 46 85 63 113 29z m584 2 c8 -12 7 -21 -2
-32 -19 -23 -58 -20 -66 4 -14 43 44 67 68 28z m-1248 -58 c9 -15 -14 -50 -33
-50 -39 0 -57 51 -25 69 18 9 46 0 58 -19z m959 14 c34 -33 7 -94 -42 -94 -31
0 -62 26 -62 53 0 49 70 76 104 41z m-422 -31 c36 -32 11 -103 -36 -103 -34 0
-66 28 -66 57 0 55 62 83 102 46z m-413 -35 c10 -28 4 -46 -20 -59 -41 -22
-80 36 -47 69 20 20 58 14 67 -10z m598 16 c-3 -3 -12 -4 -19 -1 -8 3 -5 6 6
6 11 1 17 -2 13 -5z m-467 -29 c21 -25 8 -69 -24 -80 -24 -8 -31 -6 -47 14
-24 29 -24 32 1 64 21 26 49 27 70 2z m156 0 c32 -49 -22 -104 -74 -76 -29 16
-37 48 -18 76 23 34 70 34 92 0z m769 -15 c0 -18 -6 -26 -23 -28 -24 -4 -38
18 -28 44 3 9 15 14 28 12 17 -2 23 -10 23 -28z m-310 -56 c0 -51 -71 -66 -89
-18 -17 43 31 84 69 59 12 -8 20 -23 20 -41z m220 -49 c0 -30 -39 -27 -43 3
-3 20 0 23 20 20 15 -2 23 -10 23 -23z m-327 -32 c4 -38 -25 -60 -57 -44 -24
14 -30 31 -20 59 7 19 15 23 41 20 29 -3 33 -7 36 -35z m-134 -39 c29 -28 12
-57 -30 -52 -32 3 -43 30 -24 53 16 19 35 19 54 -1z m186 -18 c0 -3 -4 -8 -10
-11 -5 -3 -10 -1 -10 4 0 6 5 11 10 11 6 0 10 -2 10 -4z m-460 -21 c15 -18 5
-35 -21 -35 -24 0 -37 29 -18 41 19 12 25 11 39 -6z m139 1 c19 -23 2 -48 -28
-41 -33 8 -34 9 -26 34 7 24 37 28 54 7z m511 -26 c0 -5 -5 -10 -11 -10 -5 0
-7 5 -4 10 3 6 8 10 11 10 2 0 4 -4 4 -10z m-270 -100 c0 -5 -4 -10 -10 -10
-5 0 -10 5 -10 10 0 6 5 10 10 10 6 0 10 -4 10 -10z m90 -20 c0 -5 -4 -10 -10
-10 -5 0 -10 5 -10 10 0 6 5 10 10 10 6 0 10 -4 10 -10z m220 -270 c0 -5 -2
-10 -4 -10 -3 0 -8 5 -11 10 -3 6 -1 10 4 10 6 0 11 -4 11 -10z"/>
</g>
</svg>
