<?xml version="1.0" encoding="UTF-8"?>
<svg width="18px" height="18px" viewBox="0 0 18 18" version="1.1" xmlns="http://www.w3.org/2000/svg" xmlns:xlink="http://www.w3.org/1999/xlink">
    <!-- Generator: Sketch 52.6 (67491) - http://www.bohemiancoding.com/sketch -->
    <title>icon-close</title>
    <desc>Created with Sketch.</desc>
    <g id="Page-1" stroke="none" stroke-width="1" fill="none" fill-rule="evenodd">
        <g id="icon-close" transform="translate(-1.000000, -1.000000)" fill="#ff7800">
            <path d="M18.691,2.719 L15.691,5.719 L11.426,9.984 L11.445,10.004 L15.69,14.249 L18.69,17.249 C18.9520525,17.5054664 19.0561098,17.8829485 18.9624812,18.2374625 C18.8688526,18.5919765 18.5919765,18.8688526 18.2374625,18.9624812 C17.8829485,19.0561098 17.5054664,18.9520525 17.249,18.69 L14.249,15.69 L9.984,11.426 L5.72,15.69 L2.72,18.69 C2.31807503,19.0633443 1.69284563,19.051932 1.30481316,18.6641686 C0.916780695,18.2764052 0.904934643,17.6511839 1.278,17.249 L4.278,14.249 L8.543,9.984 L8.523,9.965 L4.278,5.719 L1.278,2.719 C1.01594752,2.46253362 0.911890168,2.08505149 1.00551879,1.73053747 C1.0991474,1.37602345 1.37602345,1.0991474 1.73053747,1.00551879 C2.08505149,0.911890168 2.46253362,1.01594752 2.719,1.278 L5.719,4.278 L9.984,8.543 L14.25,4.278 L17.25,1.278 C17.5064664,1.01594752 17.8839485,0.911890168 18.2384625,1.00551879 C18.5929765,1.0991474 18.8698526,1.37602345 18.9634812,1.73053747 C19.0571098,2.08505149 18.9530525,2.46253362 18.691,2.719 Z" id="Path"></path>
        </g>
    </g>
</svg>
