<?xml version="1.0" encoding="UTF-8"?>
<svg width="18px" height="18px" viewBox="0 0 18 18" version="1.1" xmlns="http://www.w3.org/2000/svg" xmlns:xlink="http://www.w3.org/1999/xlink">
    <!-- Generator: Sketch 52.6 (67491) - http://www.bohemiancoding.com/sketch -->
    <title>icon-status</title>
    <desc>Created with Sketch.</desc>
    <g id="Page-1" stroke="none" stroke-width="1" fill="none" fill-rule="evenodd">
        <g id="icon-status" fill="#EF8933">
            <path d="M17,10 L15.899,10 C15.7361729,11.1516276 15.2856207,12.2436148 14.589,13.175 L15.364,13.95 C15.7429722,14.3423789 15.7375524,14.9660848 15.3518186,15.3518186 C14.9660848,15.7375524 14.3423789,15.7429722 13.95,15.364 L13.175,14.589 C12.2436148,15.2856207 11.1516276,15.7361729 10,15.899 L10,17 C10,17.5522847 9.55228475,18 9,18 C8.44771525,18 8,17.5522847 8,17 L8,15.899 C6.84837237,15.7361729 5.75638523,15.2856207 4.825,14.589 L4.05,15.364 C3.65762111,15.7429722 3.03391522,15.7375524 2.64818142,15.3518186 C2.26244763,14.9660848 2.25702779,14.3423789 2.636,13.95 L3.411,13.175 C2.71437929,12.2436148 2.26382711,11.1516276 2.101,10 L1,10 C0.44771525,10 6.76353751e-17,9.55228475 0,9 C-6.76353751e-17,8.44771525 0.44771525,8 1,8 L2.101,8 C2.26382711,6.84837237 2.71437929,5.75638523 3.411,4.825 L2.636,4.05 C2.24553468,3.65953468 2.24553468,3.02646532 2.636,2.636 C3.02646532,2.24553468 3.65953468,2.24553468 4.05,2.636 L4.825,3.411 C5.75638523,2.71437929 6.84837237,2.26382711 8,2.101 L8,1 C8,0.44771525 8.44771525,-3.42636147e-16 9,-4.4408921e-16 C9.55228475,-5.45542273e-16 10,0.44771525 10,1 L10,2.101 C11.1516276,2.26382711 12.2436148,2.71437929 13.175,3.411 L13.95,2.636 C14.3423789,2.25702779 14.9660848,2.26244763 15.3518186,2.64818142 C15.7375524,3.03391522 15.7429722,3.65762111 15.364,4.05 L14.589,4.825 C15.2856207,5.75638523 15.7361729,6.84837237 15.899,8 L17,8 C17.5522847,8 18,8.44771525 18,9 C18,9.55228475 17.5522847,10 17,10 Z M9,4 C6.23830011,4.00027614 3.99972386,6.23930011 4,9.001 C4.00027614,11.7626999 6.23930011,14.0012761 9.001,14.001 C11.7626999,14.0007239 14.0012761,11.7616999 14.001,9 C14.0007239,6.23830011 11.7616999,3.99972386 9,4 Z M9,12 C7.34314575,12 6,10.6568542 6,9 C6,7.34314575 7.34314575,6 9,6 C10.6568542,6 12,7.34314575 12,9 C12,10.6568542 10.6568542,12 9,12 Z M9,8 C8.44771525,8 8,8.44771525 8,9 C8,9.55228475 8.44771525,10 9,10 C9.55228475,10 10,9.55228475 10,9 C10,8.44771525 9.55228475,8 9,8 Z" id="Shape"></path>
        </g>
    </g>
</svg>