<?xml version="1.0" encoding="UTF-8"?>
<svg width="18px" height="18px" viewBox="0 0 18 18" version="1.1" xmlns="http://www.w3.org/2000/svg" xmlns:xlink="http://www.w3.org/1999/xlink">
    <!-- Generator: Sketch 52.6 (67491) - http://www.bohemiancoding.com/sketch -->
    <title>icon-wallet</title>
    <desc>Created with Sketch.</desc>
    <g id="Page-1" stroke="none" stroke-width="1" fill="none" fill-rule="evenodd">
        <g id="icon-wallet" fill="#EF8933">
            <path d="M17,18 L1,18 C0.44771525,18 6.76353751e-17,17.5522847 0,17 L0,1 C-6.76353751e-17,0.44771525 0.44771525,1.01453063e-16 1,0 L13,0 C13.5522847,3.38176876e-17 14,0.44771525 14,1 L14,4 L17,4 C17.5522847,4 18,4.44771525 18,5 L18,17 C18,17.5522847 17.5522847,18 17,18 Z M12,2 L2,2 L2,4 L12,4 L12,2 Z M16,6 L2,6 L2,16 L16,16 L16,6 Z M13,10 C13.5522847,10 14,10.4477153 14,11 C14,11.5522847 13.5522847,12 13,12 C12.4477153,12 12,11.5522847 12,11 C12,10.4477153 12.4477153,10 13,10 Z" id="Shape"></path>
        </g>
    </g>
</svg>