<?xml version="1.0" encoding="UTF-8"?>
<svg width="18px" height="16px" viewBox="0 0 18 16" version="1.1" xmlns="http://www.w3.org/2000/svg" xmlns:xlink="http://www.w3.org/1999/xlink">
    <!-- Generator: Sketch 52.6 (67491) - http://www.bohemiancoding.com/sketch -->
    <title>icon-events</title>
    <desc>Created with Sketch.</desc>
    <g id="Page-1" stroke="none" stroke-width="1" fill="none" fill-rule="evenodd">
        <g id="icon-events" transform="translate(0.000000, -1.000000)" fill="#ff7800">
            <path d="M17,14.031 L11.472,14.031 L12.675,15.239 C13.0779675,15.6445922 13.0779675,16.2994078 12.675,16.705 C12.481663,16.8994996 12.2187431,17.0088666 11.9445,17.0088666 C11.6702569,17.0088666 11.407337,16.8994996 11.214,16.705 L8.294,13.773 C8.06537086,13.5369953 7.96416033,13.2054564 8.022,12.882 C8.03490334,12.6444821 8.1320504,12.419342 8.296,12.247 L11.235,9.297 C11.429443,9.10152439 11.6937849,8.99162011 11.9695,8.99162011 C12.2452151,8.99162011 12.509557,9.10152439 12.704,9.297 C13.1101994,9.70476939 13.1101994,10.3642306 12.704,10.772 L11.481,12 L17,12 C17.5522847,12 18,12.4477153 18,13 L18,13.031 C18,13.5832847 17.5522847,14.031 17,14.031 Z M9.676,5.755 L6.764,8.675 C6.57129532,8.86839719 6.30951569,8.97710501 6.0365,8.97710501 C5.76348431,8.97710501 5.50170468,8.86839719 5.309,8.675 C4.9067267,8.271462 4.9067267,7.618538 5.309,7.215 L6.519,6 L1,6 C0.44771525,6 6.76353751e-17,5.55228475 0,5 C-6.76353751e-17,4.44771525 0.44771525,4 1,4 L6.51,4 L5.28,2.765 C4.87504137,2.35905942 4.87504137,1.70194058 5.28,1.296 C5.47371879,1.10107259 5.73718431,0.991461339 6.012,0.991461339 C6.28681569,0.991461339 6.55028121,1.10107259 6.744,1.296 L9.674,4.235 C9.874,4.436 9.964,4.699 9.965,4.962 C9.967,4.998 9.97,5.031 9.969,5.066 C9.967,5.085 9.961,5.102 9.959,5.12 C9.94193623,5.35827558 9.84178189,5.58300352 9.676,5.755 Z" id="Shape"></path>
        </g>
    </g>
</svg>
